PathFileType	4	(X/Y/Z)	KinectSkeleton.trc																																																	
DataRate	CameraRate	NumFrames	NumMarkers	Units	OrigDataRate	OrigDataStartFrame	OrigNumFrames																																													
60	60	20	17	mm	60	121	300																																													
Frame#	Time	Neck			ShoulderMid			R.Shoulder			L.Shoulder			R.Elbow			L.Elbow			R.Wrist			L.Wrist			HipCenter			R.Hip			L.Hip			R.Knee			L.Knee			R.Ankle			L.Ankle			R.Foot			L.Foot		
		X1	Y1	Z1	X2	Y2	Z2	X3	Y3	Z3	X4	Y4	Z4	X5	Y5	Z5	X6	Y6	Z6	X7	Y7	Z7	X8	Y8	Z8	X9	Y9	Z9	X10	Y10	Z10	X11	Y11	Z11	X12	Y12	Z12	X13	Y13	Z13	X14	Y14	Z14	X15	Y15	Z15	X16	Y16	Z16	X17	Y17	Z17
																																																				
121	7.884	-1934.786	558.786	90.329	-1934.786	558.786	90.329	-1869.27	498.452	247.076	-1919.41	508.427	-93.744	-1729.959	443.219	497.202	-1780.167	573.631	-335.102	-1566.94	462.495	676.678	-1618.234	705.357	-453.907	-1747.528	43.242	5.325	-1766.004	19.024	84.837	-1727.039	70.1	-82.85	-1597.354	-349.534	-0.152	-1362.962	-89.491	-200.531	-1921.74	-583.777	14.011	-1058.516	-321.191	-303.51	-1830.511	-736.123	32.098	-917.603	-193.162	-340.775
122	7.931	-1922.853	566.76	85.43	-1922.853	566.76	85.43	-1856.238	505.241	241.562	-1909.958	512.244	-97.523	-1713.054	454.486	490.009	-1776.907	573.175	-343.02	-1545.512	476.184	664.555	-1616.521	702.504	-465.868	-1748.44	47.1	4.9	-1764.766	24.549	85.252	-1730.336	72.108	-84.206	-1603.39	-347.28	3.019	-1375.97	-102.928	-207.566	-1921.248	-589.657	13.344	-1070.728	-329.578	-317.261	-1821.583	-735.874	34.914	-927.253	-202.956	-347.624
123	7.977	-1912.405	570.585	81.812	-1912.405	570.585	81.812	-1847.285	510.361	238.316	-1902.753	512.626	-99.669	-1702.857	459.634	484.853	-1772.668	575.853	-345.016	-1532.22	478.764	655.48	-1610.597	700.416	-468.942	-1751.485	48.089	6.757	-1766.466	27.234	87.514	-1734.872	71.217	-82.8	-1607.894	-344.347	5.948	-1384.862	-106.336	-210.096	-1922.054	-589.448	7.516	-1089.633	-342.657	-321.799	-1820.833	-733.129	33.329	-936.18	-228.115	-346.522
124	8.023	-1892.116	583.104	79.706	-1892.116	583.104	79.706	-1824.245	523.736	234.441	-1884.804	524.605	-101.091	-1678.562	468.456	478.406	-1755.803	572.771	-349.595	-1504.994	480.83	645.826	-1592.592	681.194	-485.485	-1761.902	53.743	5.592	-1769.289	35.222	87.739	-1753.71	74.283	-85.506	-1615.854	-337.271	5.633	-1411.189	-114.284	-214.042	-1922.713	-589.904	8.149	-1137.773	-375.799	-321.623	-1817.734	-730.457	33.155	-970.581	-282.924	-344.354
125	8.068	-1881.413	589.246	76.806	-1881.413	589.246	76.806	-1811.506	531.599	230.612	-1876.361	528.588	-103.034	-1663.665	474.109	472.202	-1744.784	567.704	-351.251	-1488.413	482.888	637.515	-1579.268	668.411	-489.592	-1763.286	57.34	7.202	-1767.934	40.072	89.681	-1758.131	76.491	-84.264	-1618.623	-332.92	5.592	-1423.196	-121.883	-215.861	-1921.482	-589.103	16.86	-1168.896	-401.548	-322.34	-1822.038	-735.09	26.767	-993.156	-326.306	-343.06
126	8.116	-1868.088	598.552	74.586	-1868.088	598.552	74.586	-1798.672	538.717	226.639	-1868.035	537.801	-104.352	-1647.47	477.134	463.269	-1732.94	564.685	-350.592	-1473.036	479.416	627.813	-1565.362	652.149	-493.233	-1768.225	64.868	8.553	-1772.611	49.14	90.899	-1763.36	82.31	-82.767	-1630.378	-324.752	9.117	-1439.438	-127.879	-216.812	-1921.532	-591.243	15.021	-1208.714	-425.92	-319.445	-1817.385	-731.728	34.697	-1030.849	-360.339	-344.919
127	8.164	-1840.047	622.909	63.879	-1840.047	622.909	63.879	-1773.991	558.276	215.222	-1841.845	555.772	-112.567	-1623.591	483.367	447.26	-1703.229	557.185	-357.184	-1443.873	473.305	604.447	-1533.868	607.008	-513.782	-1773.171	84.125	8.052	-1773.113	70.698	90.625	-1773.236	99.016	-83.518	-1643.021	-306.023	8.705	-1477.949	-146.786	-218.788	-1919.951	-585.091	21.742	-1302.533	-482.333	-309.186	-1822.86	-730.812	31.401	-1118.146	-444.335	-339.003
128	8.208	-1823.088	634.393	54.952	-1823.088	634.393	54.952	-1760.645	569.185	206.852	-1824.722	568.15	-121.264	-1612.261	489.422	437.894	-1687.817	557.391	-365.996	-1430.908	468.139	591.347	-1518.624	587.811	-527.007	-1778.297	93.209	7.883	-1777.994	81.895	90.611	-1778.632	105.756	-83.858	-1656.024	-296.452	7.545	-1496.949	-157.064	-213.699	-1924.657	-582.263	24.805	-1355.307	-509.783	-294.22	-1835.045	-732.601	27.124	-1169.227	-481.179	-321.589
129	8.254	-1798.131	644.622	50.73	-1798.131	644.622	50.73	-1742.995	578.241	203.745	-1807.462	574.91	-123.142	-1598.333	493.601	433.413	-1676.364	553.999	-368.582	-1417.709	462.898	584.014	-1510.492	573.051	-532.82	-1782.147	104.249	8.954	-1779.049	93.73	91.252	-1785.582	115.913	-82.313	-1663.408	-284.107	8.01	-1519.539	-161.011	-208.602	-1915.43	-582.032	19.723	-1409.489	-525.88	-271.96	-1830.511	-733.01	36.645	-1223.229	-522.599	-304.844
130	8.3	-1755.534	676.055	38.829	-1755.534	676.055	38.829	-1706.296	604.575	193.606	-1778.136	598.686	-133.211	-1571.617	498.4	423.238	-1665.783	539.118	-384.107	-1395.217	443.694	575.047	-1497.757	532.653	-549.821	-1786.508	131.408	4.942	-1779.115	121.513	87.719	-1794.706	142.382	-86.854	-1693.282	-268.089	6.868	-1559.76	-173.704	-191.456	-1923.702	-586.879	19.064	-1523.342	-559.193	-233.094	-1818.982	-727.069	31.747	-1338.252	-586.832	-269.701
131	8.347	-1736.797	695.515	29.489	-1736.797	695.515	29.489	-1687.745	624.824	184.103	-1763.31	618.562	-141.634	-1561.754	506.778	412.107	-1655.132	543.342	-389.474	-1387.21	439.617	560.22	-1491.489	509.633	-555.558	-1787.401	152.848	3.304	-1781.417	144.324	86.168	-1794.036	162.301	-88.588	-1711.557	-249.845	17.302	-1581.555	-170.704	-185.062	-1921.095	-581.969	18.533	-1571.112	-558.364	-210.175	-1824.247	-726.937	34.496	-1386.669	-597.96	-235.099
132	8.391	-1693.93	730.212	12.91	-1693.93	730.212	12.91	-1649.089	656.621	167.946	-1734.133	659.037	-158.495	-1538.257	518.652	393.634	-1649.452	538.108	-398.147	-1379.267	423.586	545.02	-1496.268	460.058	-560.178	-1787.768	190.816	-2.419	-1780.599	184.669	80.797	-1795.719	197.632	-94.702	-1745.435	-217.163	24.111	-1622.408	-165.281	-162.035	-1922.421	-568.947	26.024	-1623.381	-554.581	-179.7	-1831.108	-718.881	27.975	-1445.405	-622.334	-191.773
133	8.438	-1672.923	744.172	4.489	-1672.923	744.172	4.489	-1629.362	665.24	159.25	-1717.655	679.829	-169.12	-1525.019	517.502	384.485	-1653.63	532.805	-402.914	-1376.102	410.281	540.655	-1496.656	448.304	-560.514	-1785.052	203.992	-6.583	-1778.562	198.812	77.361	-1792.249	209.736	-99.674	-1759.351	-208.381	31.043	-1641.664	-168.692	-152.583	-1930.26	-566.308	29.467	-1634.523	-560.45	-175.853	-1835.594	-715.553	23.734	-1455.848	-630.194	-188.088
134	8.483	-1651.659	752.11	-4.748	-1651.659	752.11	-4.748	-1610.68	672.286	150.174	-1699.52	687.842	-177.277	-1514.144	516.237	372.749	-1649.808	528.789	-406.142	-1368.758	397.502	523.291	-1502.732	426.789	-562.425	-1778.673	215.943	-10.814	-1772.023	211.304	73.03	-1786.048	221.087	-103.794	-1772.14	-196.675	35.612	-1658.771	-166.423	-146.746	-1940.034	-555.406	33.268	-1664.142	-557.987	-163.519	-1844.202	-703.617	27.759	-1488.233	-634.673	-166.675
135	8.531	-1618.799	754.812	-28.059	-1618.799	754.812	-28.059	-1588.355	677.1	128.977	-1663.93	693.476	-200.955	-1498.986	512.158	345.729	-1641.33	515.415	-417.597	-1361.176	381.985	491.469	-1519.567	377.476	-565.594	-1755.544	224.4	-27.521	-1755.959	223.762	56.184	-1755.083	225.107	-120.347	-1785.109	-182.258	48.835	-1694.112	-177.538	-136.865	-1936.141	-545.503	35.766	-1695.034	-566.691	-153.566	-1848.787	-697.611	40.709	-1523.947	-650.954	-155.75
136	8.577	-1603.827	747.797	-37.048	-1603.827	747.797	-37.048	-1576.978	673.011	121.608	-1649.507	693.116	-210.796	-1492.282	504.354	336.845	-1642.922	506.56	-420.758	-1353.317	371.221	478.206	-1536.138	351.201	-562.401	-1746.607	220.074	-20.976	-1746.611	223.674	62.539	-1746.602	216.081	-113.591	-1778.8	-181.355	47.96	-1701.431	-187.937	-133.144	-1941.889	-538.864	38.608	-1683.181	-576.116	-149.935	-1863.71	-695.685	37.176	-1512.053	-657.807	-167.744
137	8.623	-1583.052	737.836	-56.418	-1583.052	737.836	-56.418	-1563.633	672.019	107.817	-1620.23	671.168	-228.759	-1496.083	492.136	320.897	-1637.125	476.613	-431.635	-1359.313	346.9	453.12	-1539.04	316.142	-574.769	-1723.882	208.895	-37.322	-1727.187	211.898	46.345	-1720.216	205.565	-130.104	-1786.552	-191.245	42.99	-1689.664	-201.233	-130.594	-1941.491	-553.374	34.664	-1709.416	-590.601	-130.977	-1849.046	-702.029	48.95	-1533.209	-663.804	-136.912
138	8.668	-1572.693	733.986	-67.92	-1572.693	733.986	-67.92	-1557.119	664.653	96.103	-1603.327	660.038	-239.422	-1499.952	484.095	311.682	-1633.385	462.405	-437.795	-1357.109	344.407	443.509	-1543.902	294.757	-578.362	-1715.068	205.557	-45.839	-1722.026	210.229	37.536	-1707.352	200.375	-138.299	-1782.735	-192.775	36.493	-1680.351	-206.673	-131.964	-1952.391	-548.371	32.464	-1724.371	-594.067	-127.38	-1851.536	-690.901	51.676	-1544.213	-656.956	-133.654
139	8.715	-1562.729	735.478	-76.026	-1562.729	735.478	-76.026	-1550.443	664.143	88.103	-1590.854	660.825	-247.641	-1501.175	479.4	302.314	-1626.484	457.9	-439.898	-1363.786	333.436	433.404	-1548.398	280.96	-576.041	-1705.226	206.94	-48.751	-1713.541	213.072	34.457	-1696.005	200.139	-141.025	-1780.254	-189.234	33.362	-1681.709	-207.775	-133.107	-1951.856	-544.162	29.253	-1717.677	-596.195	-125.668	-1862.623	-693.739	52.874	-1539.449	-664.486	-133.847
140	8.763	-1546.677	738.945	-91.266	-1546.677	738.945	-91.266	-1540.01	668.768	73.614	-1568.371	661.348	-262.679	-1508.466	474.312	282.409	-1617.858	447.822	-439.68	-1380.067	316.071	408.146	-1556.223	257.92	-566.37	-1685.19	209.385	-61.719	-1691.642	215.439	21.638	-1678.036	202.671	-154.159	-1777.068	-183.108	30.695	-1677.34	-205.272	-141.522	-1946.702	-538.896	30.762	-1714.178	-593.389	-129.223	-1857.271	-688.623	52.259	-1538.004	-667.036	-133.288
